{
  "title": "Bad Boy Bubby 1993.720p.BluRay.x264 . NVEE",
  "uid": 9112569,
  "size": 1634099810,
  "categoryP": "video",
  "categoryS": "hd___movies",
  "magnet": "?xt=urn:btih:59e75992836e33011da168021c44ed72d85a6a2e&amp;dn=Bad+Boy+Bubby+1993.720p.BluRay.x264+.+NVEE&amp;tr=udp%3A%2F%2Ftracker.openbittorrent.com%3A80&amp;tr=udp%3A%2F%2Fopen.demonii.com%3A1337&amp;tr=udp%3A%2F%2Ftracker.coppersurfer.tk%3A6969&amp;tr=udp%3A%2F%2Fexodus.desync.com%3A6969",
  "seeders": 42,
  "leechers": 0,
  "uploader": ".NVEE",
  "files": 3,
  "time": 1382974803,
  "description": "FULL_INFOs\n\n\n99.99% &gt;&gt;&gt; SYNCED GUARANTEED \n\n&quot;Totally scrutinized / analyzed to be a verified torrent.&quot;\n___________________________________________\n\nSource : Blu-Ray ~ 720p\n\nMy Media Player of Choice &quot;VLC Media Player via HDMI&quot;\n\nSpoken Language : English\n\nAudio : 6 ~ Channels Only\n\nDon't delete torrent link,... Please seed . NVEE\n_____________________________________\n\n\n &lt;a href=&quot;\nhttp://www.imdb.com/title/tt0106341/&quot; rel=&quot;nofollow&quot; target=&quot;_NEW&quot;&gt;\nhttp://www.imdb.com/title/tt0106341/&lt;/a&gt;\n\n\n\nSubs Info : MULTI_SUBS\n\n &lt;a href=&quot;\nhttp://www.subtitleseeker.com/0106341/Bad+Boy+Bubby/Subtitles/&quot; rel=&quot;nofollow&quot; target=&quot;_NEW&quot;&gt;\nhttp://www.subtitleseeker.com/0106341/Bad+Boy+Bubby/Subtitles/&lt;/a&gt;\n\n121 Subtitles In 17 Languages Use Link Provided \n &lt;a href=&quot;\nhttp://www.subtitleseeker.com/0106341/Bad+Boy+Bubby/Subtitles/&quot; rel=&quot;nofollow&quot; target=&quot;_NEW&quot;&gt;\nhttp://www.subtitleseeker.com/0106341/Bad+Boy+Bubby/Subtitles/&lt;/a&gt;\n\n121 Subtitles In 17 Languages Only @ SubtitleSeeker\n &lt;a href=&quot;\nhttp://www.subtitleseeker.com/0106341/Bad+Boy+Bubby/Subtitles/&quot; rel=&quot;nofollow&quot; target=&quot;_NEW&quot;&gt;\nhttp://www.subtitleseeker.com/0106341/Bad+Boy+Bubby/Subtitles/&lt;/a&gt;\n\n&amp; or @\n &lt;a href=&quot;\nhttp://subscene.com/subtitles/bad-boy-bubby&quot; rel=&quot;nofollow&quot; target=&quot;_NEW&quot;&gt;\nhttp://subscene.com/subtitles/bad-boy-bubby&lt;/a&gt;\n\nAll .srt subs can be turned On/Off\n\n\n &lt;a href=&quot;\nhttp://www.imdb.com/title/tt0106341/&quot; rel=&quot;nofollow&quot; target=&quot;_NEW&quot;&gt;\nhttp://www.imdb.com/title/tt0106341/&lt;/a&gt;\n\n\n\n---------------------------------------------------------------------------------\n\n\nGeneral Metadata\n\nComplete name : Bad Boy Bubby 1993.720p.BluRay.x264 . NVEEBad Boy Bubby 1993.720p.BluRay.x264 . NVEE.mp4\nFormat : MPEG-4\nFormat profile : Base Media\nCodec ID : isom\nFile size : 1.52 GiB\nDuration : 1h 53mn\nOverall bit rate : 1 912 Kbps\nEncoded date : UTC 2013-10-28 05:18:14\nTagged date : UTC 2013-10-28 05:18:14\n\n\nVideo\n\nID : 1\nFormat : AVC\nFormat/Info : Advanced Video Codec\nFormat profile : &lt;a class=&quot;__cf_email__&quot; href=&quot;/cdn-cgi/l/email-protection&quot; data-cfemail=&quot;1f577678775f532c312d&quot;&gt;[email&amp;#160;protected]&lt;/a&gt;&lt;script cf-hash='f9e31' type=&quot;text/javascript&quot;&gt;\n/* &lt;![CDATA[ */!function(){try{var t=&quot;currentScript&quot;in document?document.currentScript:function(){for(var t=document.getElementsByTagName(&quot;script&quot;),e=t.length;e--;)if(t[e].getAttribute(&quot;cf-hash&quot;))return t[e]}();if(t&amp;&amp;t.previousSibling){var e,r,n,i,c=t.previousSibling,a=c.getAttribute(&quot;data-cfemail&quot;);if(a){for(e=&quot;&quot;,r=parseInt(a.substr(0,2),16),n=2;a.length-n;n+=2)i=parseInt(a.substr(n,2),16)^r,e+=String.fromCharCode(i);e=document.createTextNode(e),c.parentNode.replaceChild(e,c)}}}catch(u){}}();/* ]]&gt; */&lt;/script&gt;\nFormat settings, CABAC : Yes\nFormat settings, ReFrames : 3 frames\nCodec ID : avc1\nCodec ID/Info : Advanced Video Coding\nDuration : 1h 53mn\nBit rate : 1 461 Kbps\nMaximum bit rate : 5 105 Kbps\nWidth : 1 280 pixels\nHeight : 546 pixels\nDisplay aspect ratio : 2.35:1\nFrame rate mode : Constant\nFrame rate : 23.976 fps\nColor space : YUV\nChroma subsampling : 4:2:0\nBit depth : 8 bits\nScan type : Progressive\nBits/(Pixel*Frame) : 0.087\nStream size : 1.16 GiB (77%)\nWriting library : x264 core 133 r2334 a3ac64b\nEncoded date : UTC 2013-10-28 02:20:05\nTagged date : UTC 2013-10-28 05:19:43\nColor primaries : BT.709\nTransfer characteristics : BT.709\nMatrix coefficients : BT.709\n\n\nAudio\n\nID : 2\nFormat : AC-3\nFormat/Info : Audio Coding 3\nMode extension : CM (complete main)\nFormat settings, Endianness : Big\nCodec ID : ac-3\nDuration : 1h 53mn\nBit rate mode : Constant\nBit rate : 448 Kbps\nChannel(s) : 6 channels\nChannel positions : Front: L C R, Side: L R, LFE\nSampling rate : 48.0 KHz\nBit depth : 16 bits\nCompression mode : Lossy\nDelay relative to video : 83ms\nStream size : 365 MiB (23%)\nTitle : 720p.BluRay.x264 . NVEE - [0] English.ac3#trackID=1:lang=&lt;a class=&quot;__cf_email__&quot; href=&quot;/cdn-cgi/l/email-protection&quot; data-cfemail=&quot;bbded5fbfcebfaf88b958e958a96fffeed96c9decd8f898388&quot;&gt;[email&amp;#160;protected]&lt;/a&gt;&lt;script cf-hash='f9e31' type=&quot;text/javascript&quot;&gt;\n/* &lt;![CDATA[ */!function(){try{var t=&quot;currentScript&quot;in document?document.currentScript:function(){for(var t=document.getElementsByTagName(&quot;script&quot;),e=t.length;e--;)if(t[e].getAttribute(&quot;cf-hash&quot;))return t[e]}();if(t&amp;&amp;t.previousSibling){var e,r,n,i,c=t.previousSibling,a=c.getAttribute(&quot;data-cfemail&quot;);if(a){for(e=&quot;&quot;,r=parseInt(a.substr(0,2),16),n=2;a.length-n;n+=2)i=parseInt(a.substr(n,2),16)^r,e+=String.fromCharCode(i);e=document.createTextNode(e),c.parentNode.replaceChild(e,c)}}}catch(u){}}();/* ]]&gt; */&lt;/script&gt;\nLanguage : English\nEncoded date : UTC 2013-10-28 05:18:55\nTagged date : UTC 2013-10-28 05:19:43\n\n\nSynopsis\n\nBubby is a 35-year-old man who has never set foot outside his mother's dingy apartment in the back of a printing press in an industrial ares of Adelaide-Australia. In addition to beating and sexually abusing him, she confines him to the apartment, telling him that the air outside is poisonous and warning him that he will die if he tries to leave. Bubby eventually escapes, joins up with a rock band, and embarks on a journey of self-discovery and shocking mayhem.\n\nEnjoy !",
  "parsed": {
    "xt": "urn:btih:59e75992836e33011da168021c44ed72d85a6a2e",
    "dn": "Bad Boy Bubby 1993.720p.BluRay.x264 . NVEE",
    "tr": [
      "udp://exodus.desync.com:6969",
      "udp://open.demonii.com:1337",
      "udp://tracker.coppersurfer.tk:6969",
      "udp://tracker.openbittorrent.com:80"
    ],
    "infoHash": "59e75992836e33011da168021c44ed72d85a6a2e",
    "infoHashBuffer": {
      "type": "Buffer",
      "data": [
        89,
        231,
        89,
        146,
        131,
        110,
        51,
        1,
        29,
        161,
        104,
        2,
        28,
        68,
        237,
        114,
        216,
        90,
        106,
        46
      ]
    },
    "name": "Bad Boy Bubby 1993.720p.BluRay.x264 . NVEE",
    "announce": [
      "udp://exodus.desync.com:6969",
      "udp://open.demonii.com:1337",
      "udp://tracker.coppersurfer.tk:6969",
      "udp://tracker.openbittorrent.com:80"
    ],
    "urlList": []
  },
  "previous": 42,
  "peers": 19,
  "last_updated": "2016-12-25T01:56:40.605Z"
}